<mxfile host="Electron" agent="Mozilla/5.0 (Windows NT 10.0; Win64; x64) AppleWebKit/537.36 (KHTML, like Gecko) draw.io/28.2.5 Chrome/138.0.7204.251 Electron/37.6.1 Safari/537.36" version="28.2.5">
  <diagram name="Page-1" id="KybaVHxpi4uz1CWA_HMh">
    <mxGraphModel dx="1426" dy="961" grid="1" gridSize="10" guides="1" tooltips="1" connect="1" arrows="1" fold="1" page="0" pageScale="1" pageWidth="850" pageHeight="1100" math="0" shadow="0">
      <root>
        <mxCell id="0" />
        <mxCell id="1" parent="0" />
        <mxCell id="Gqdi9g9MBIYmfzDinq6c-1" value="" style="rounded=0;whiteSpace=wrap;html=1;fillColor=none;dashed=1;strokeWidth=1;perimeterSpacing=0;" parent="1" vertex="1">
          <mxGeometry x="80" y="220" width="140" height="400" as="geometry" />
        </mxCell>
        <mxCell id="Gqdi9g9MBIYmfzDinq6c-2" value="&lt;font style=&quot;font-size: 16px;&quot;&gt;&lt;b&gt;Source&lt;/b&gt;&lt;/font&gt;" style="text;html=1;align=center;verticalAlign=middle;resizable=0;points=[];autosize=1;strokeColor=none;fillColor=default;" parent="1" vertex="1">
          <mxGeometry x="110" y="207" width="80" height="30" as="geometry" />
        </mxCell>
        <mxCell id="Gqdi9g9MBIYmfzDinq6c-17" style="edgeStyle=orthogonalEdgeStyle;rounded=0;orthogonalLoop=1;jettySize=auto;html=1;entryX=0;entryY=0.5;entryDx=0;entryDy=0;" parent="1" source="Gqdi9g9MBIYmfzDinq6c-4" target="Gqdi9g9MBIYmfzDinq6c-8" edge="1">
          <mxGeometry relative="1" as="geometry" />
        </mxCell>
        <mxCell id="Gqdi9g9MBIYmfzDinq6c-18" style="edgeStyle=orthogonalEdgeStyle;rounded=0;orthogonalLoop=1;jettySize=auto;html=1;entryX=0;entryY=0.5;entryDx=0;entryDy=0;" parent="1" source="Gqdi9g9MBIYmfzDinq6c-4" target="Gqdi9g9MBIYmfzDinq6c-9" edge="1">
          <mxGeometry relative="1" as="geometry" />
        </mxCell>
        <mxCell id="Gqdi9g9MBIYmfzDinq6c-19" style="edgeStyle=orthogonalEdgeStyle;rounded=0;orthogonalLoop=1;jettySize=auto;html=1;entryX=0;entryY=0.5;entryDx=0;entryDy=0;" parent="1" source="Gqdi9g9MBIYmfzDinq6c-4" target="Gqdi9g9MBIYmfzDinq6c-10" edge="1">
          <mxGeometry relative="1" as="geometry" />
        </mxCell>
        <mxCell id="Gqdi9g9MBIYmfzDinq6c-4" value="&lt;b&gt;&lt;font style=&quot;font-size: 14px;&quot;&gt;CRM&lt;/font&gt;&lt;/b&gt;" style="image;aspect=fixed;html=1;points=[];align=center;fontSize=12;image=img/lib/azure2/general/Folder_Blank.svg;" parent="1" vertex="1">
          <mxGeometry x="111.07" y="305" width="73.93" height="60" as="geometry" />
        </mxCell>
        <mxCell id="Gqdi9g9MBIYmfzDinq6c-14" style="edgeStyle=orthogonalEdgeStyle;rounded=0;orthogonalLoop=1;jettySize=auto;html=1;entryX=0;entryY=0.5;entryDx=0;entryDy=0;" parent="1" source="Gqdi9g9MBIYmfzDinq6c-5" target="Gqdi9g9MBIYmfzDinq6c-12" edge="1">
          <mxGeometry relative="1" as="geometry" />
        </mxCell>
        <mxCell id="Gqdi9g9MBIYmfzDinq6c-15" style="edgeStyle=orthogonalEdgeStyle;rounded=0;orthogonalLoop=1;jettySize=auto;html=1;entryX=0;entryY=0.5;entryDx=0;entryDy=0;" parent="1" source="Gqdi9g9MBIYmfzDinq6c-5" target="Gqdi9g9MBIYmfzDinq6c-11" edge="1">
          <mxGeometry relative="1" as="geometry" />
        </mxCell>
        <mxCell id="Gqdi9g9MBIYmfzDinq6c-16" style="edgeStyle=orthogonalEdgeStyle;rounded=0;orthogonalLoop=1;jettySize=auto;html=1;entryX=0;entryY=0.5;entryDx=0;entryDy=0;" parent="1" source="Gqdi9g9MBIYmfzDinq6c-5" target="Gqdi9g9MBIYmfzDinq6c-13" edge="1">
          <mxGeometry relative="1" as="geometry" />
        </mxCell>
        <mxCell id="Gqdi9g9MBIYmfzDinq6c-5" value="&lt;b&gt;&lt;font style=&quot;font-size: 14px;&quot;&gt;ERP&lt;/font&gt;&lt;/b&gt;" style="image;aspect=fixed;html=1;points=[];align=center;fontSize=12;image=img/lib/azure2/general/Folder_Blank.svg;" parent="1" vertex="1">
          <mxGeometry x="111.04" y="475" width="73.93" height="60" as="geometry" />
        </mxCell>
        <mxCell id="Gqdi9g9MBIYmfzDinq6c-6" value="&lt;font style=&quot;font-size: 16px;&quot;&gt;&lt;b&gt;Bronze Layer&lt;/b&gt;&lt;/font&gt;" style="rounded=1;whiteSpace=wrap;html=1;fillColor=#ffe6cc;strokeColor=#d79b00;" parent="1" vertex="1">
          <mxGeometry x="290" y="160" width="210" height="50" as="geometry" />
        </mxCell>
        <mxCell id="Gqdi9g9MBIYmfzDinq6c-7" value="" style="rounded=1;whiteSpace=wrap;html=1;fillColor=none;strokeColor=#d79b00;arcSize=5;" parent="1" vertex="1">
          <mxGeometry x="290" y="220" width="210" height="400" as="geometry" />
        </mxCell>
        <mxCell id="Gqdi9g9MBIYmfzDinq6c-28" style="edgeStyle=orthogonalEdgeStyle;rounded=0;orthogonalLoop=1;jettySize=auto;html=1;" parent="1" source="Gqdi9g9MBIYmfzDinq6c-8" target="Gqdi9g9MBIYmfzDinq6c-22" edge="1">
          <mxGeometry relative="1" as="geometry" />
        </mxCell>
        <mxCell id="Gqdi9g9MBIYmfzDinq6c-8" value="&lt;span style=&quot;font-size: 16px;&quot;&gt;crm_sales_details&lt;/span&gt;" style="rounded=1;whiteSpace=wrap;html=1;fillColor=#ffe6cc;strokeColor=#d79b00;arcSize=23;" parent="1" vertex="1">
          <mxGeometry x="315" y="270" width="160" height="30" as="geometry" />
        </mxCell>
        <mxCell id="Gqdi9g9MBIYmfzDinq6c-29" style="edgeStyle=orthogonalEdgeStyle;rounded=0;orthogonalLoop=1;jettySize=auto;html=1;" parent="1" source="Gqdi9g9MBIYmfzDinq6c-9" target="Gqdi9g9MBIYmfzDinq6c-23" edge="1">
          <mxGeometry relative="1" as="geometry" />
        </mxCell>
        <mxCell id="Gqdi9g9MBIYmfzDinq6c-9" value="&lt;span style=&quot;font-size: 16px;&quot;&gt;crm_cust_info&lt;/span&gt;" style="rounded=1;whiteSpace=wrap;html=1;fillColor=#ffe6cc;strokeColor=#d79b00;arcSize=23;" parent="1" vertex="1">
          <mxGeometry x="315" y="320" width="160" height="30" as="geometry" />
        </mxCell>
        <mxCell id="Gqdi9g9MBIYmfzDinq6c-30" style="edgeStyle=orthogonalEdgeStyle;rounded=0;orthogonalLoop=1;jettySize=auto;html=1;" parent="1" source="Gqdi9g9MBIYmfzDinq6c-10" target="Gqdi9g9MBIYmfzDinq6c-24" edge="1">
          <mxGeometry relative="1" as="geometry" />
        </mxCell>
        <mxCell id="Gqdi9g9MBIYmfzDinq6c-10" value="&lt;span style=&quot;font-size: 16px;&quot;&gt;crm_prd_info&lt;/span&gt;" style="rounded=1;whiteSpace=wrap;html=1;fillColor=#ffe6cc;strokeColor=#d79b00;arcSize=23;" parent="1" vertex="1">
          <mxGeometry x="315" y="370" width="160" height="30" as="geometry" />
        </mxCell>
        <mxCell id="Gqdi9g9MBIYmfzDinq6c-31" style="edgeStyle=orthogonalEdgeStyle;rounded=0;orthogonalLoop=1;jettySize=auto;html=1;" parent="1" source="Gqdi9g9MBIYmfzDinq6c-11" target="Gqdi9g9MBIYmfzDinq6c-25" edge="1">
          <mxGeometry relative="1" as="geometry" />
        </mxCell>
        <mxCell id="Gqdi9g9MBIYmfzDinq6c-11" value="&lt;span style=&quot;font-size: 16px;&quot;&gt;erp_cust_az12&lt;/span&gt;" style="rounded=1;whiteSpace=wrap;html=1;fillColor=#ffe6cc;strokeColor=#d79b00;arcSize=23;" parent="1" vertex="1">
          <mxGeometry x="315" y="440" width="160" height="30" as="geometry" />
        </mxCell>
        <mxCell id="Gqdi9g9MBIYmfzDinq6c-32" style="edgeStyle=orthogonalEdgeStyle;rounded=0;orthogonalLoop=1;jettySize=auto;html=1;" parent="1" source="Gqdi9g9MBIYmfzDinq6c-12" target="Gqdi9g9MBIYmfzDinq6c-26" edge="1">
          <mxGeometry relative="1" as="geometry" />
        </mxCell>
        <mxCell id="Gqdi9g9MBIYmfzDinq6c-12" value="&lt;span style=&quot;font-size: 16px;&quot;&gt;erp_loc_a101&lt;/span&gt;" style="rounded=1;whiteSpace=wrap;html=1;fillColor=#ffe6cc;strokeColor=#d79b00;arcSize=23;" parent="1" vertex="1">
          <mxGeometry x="315" y="490" width="160" height="30" as="geometry" />
        </mxCell>
        <mxCell id="Gqdi9g9MBIYmfzDinq6c-33" style="edgeStyle=orthogonalEdgeStyle;rounded=0;orthogonalLoop=1;jettySize=auto;html=1;" parent="1" source="Gqdi9g9MBIYmfzDinq6c-13" target="Gqdi9g9MBIYmfzDinq6c-27" edge="1">
          <mxGeometry relative="1" as="geometry" />
        </mxCell>
        <mxCell id="Gqdi9g9MBIYmfzDinq6c-13" value="&lt;span style=&quot;font-size: 16px;&quot;&gt;erp_px_cat_g1v2&lt;/span&gt;" style="rounded=1;whiteSpace=wrap;html=1;fillColor=#ffe6cc;strokeColor=#d79b00;arcSize=23;" parent="1" vertex="1">
          <mxGeometry x="315" y="540" width="160" height="30" as="geometry" />
        </mxCell>
        <mxCell id="Gqdi9g9MBIYmfzDinq6c-20" value="&lt;font style=&quot;font-size: 16px;&quot;&gt;&lt;b&gt;Silver Layer&lt;/b&gt;&lt;/font&gt;" style="rounded=1;whiteSpace=wrap;html=1;fillColor=#f5f5f5;strokeColor=#666666;fontColor=#333333;" parent="1" vertex="1">
          <mxGeometry x="550" y="160" width="210" height="50" as="geometry" />
        </mxCell>
        <mxCell id="Gqdi9g9MBIYmfzDinq6c-21" value="" style="rounded=1;whiteSpace=wrap;html=1;fillColor=none;strokeColor=#666666;arcSize=5;fontColor=#333333;" parent="1" vertex="1">
          <mxGeometry x="550" y="220" width="210" height="400" as="geometry" />
        </mxCell>
        <mxCell id="YDza5UhTeGuXQKySHivk-10" style="rounded=0;orthogonalLoop=1;jettySize=auto;html=1;" edge="1" parent="1" source="Gqdi9g9MBIYmfzDinq6c-22" target="YDza5UhTeGuXQKySHivk-4">
          <mxGeometry relative="1" as="geometry" />
        </mxCell>
        <mxCell id="Gqdi9g9MBIYmfzDinq6c-22" value="&lt;span style=&quot;font-size: 16px;&quot;&gt;crm_sales_details&lt;/span&gt;" style="rounded=1;whiteSpace=wrap;html=1;fillColor=#f5f5f5;strokeColor=#666666;arcSize=23;fontColor=#333333;" parent="1" vertex="1">
          <mxGeometry x="575" y="270" width="160" height="30" as="geometry" />
        </mxCell>
        <mxCell id="YDza5UhTeGuXQKySHivk-11" style="rounded=0;orthogonalLoop=1;jettySize=auto;html=1;entryX=0;entryY=0.25;entryDx=0;entryDy=0;exitX=1;exitY=0.5;exitDx=0;exitDy=0;" edge="1" parent="1" source="Gqdi9g9MBIYmfzDinq6c-23" target="YDza5UhTeGuXQKySHivk-5">
          <mxGeometry relative="1" as="geometry" />
        </mxCell>
        <mxCell id="Gqdi9g9MBIYmfzDinq6c-23" value="&lt;span style=&quot;font-size: 16px;&quot;&gt;crm_cust_info&lt;/span&gt;" style="rounded=1;whiteSpace=wrap;html=1;fillColor=#f5f5f5;strokeColor=#666666;arcSize=23;fontColor=#333333;" parent="1" vertex="1">
          <mxGeometry x="575" y="320" width="160" height="30" as="geometry" />
        </mxCell>
        <mxCell id="YDza5UhTeGuXQKySHivk-14" style="rounded=0;orthogonalLoop=1;jettySize=auto;html=1;exitX=1;exitY=0.5;exitDx=0;exitDy=0;entryX=0;entryY=0.5;entryDx=0;entryDy=0;jumpStyle=gap;" edge="1" parent="1" source="Gqdi9g9MBIYmfzDinq6c-24" target="YDza5UhTeGuXQKySHivk-6">
          <mxGeometry relative="1" as="geometry" />
        </mxCell>
        <mxCell id="Gqdi9g9MBIYmfzDinq6c-24" value="&lt;span style=&quot;font-size: 16px;&quot;&gt;crm_prd_info&lt;/span&gt;" style="rounded=1;whiteSpace=wrap;html=1;fillColor=#f5f5f5;strokeColor=#666666;arcSize=23;fontColor=#333333;" parent="1" vertex="1">
          <mxGeometry x="575" y="370" width="160" height="30" as="geometry" />
        </mxCell>
        <mxCell id="YDza5UhTeGuXQKySHivk-12" style="rounded=0;orthogonalLoop=1;jettySize=auto;html=1;entryX=0;entryY=0.5;entryDx=0;entryDy=0;exitX=1;exitY=0.25;exitDx=0;exitDy=0;jumpStyle=gap;" edge="1" parent="1" source="Gqdi9g9MBIYmfzDinq6c-25" target="YDza5UhTeGuXQKySHivk-5">
          <mxGeometry relative="1" as="geometry" />
        </mxCell>
        <mxCell id="Gqdi9g9MBIYmfzDinq6c-25" value="&lt;span style=&quot;font-size: 16px;&quot;&gt;erp_cust_az12&lt;/span&gt;" style="rounded=1;whiteSpace=wrap;html=1;fillColor=#f5f5f5;strokeColor=#666666;arcSize=23;fontColor=#333333;" parent="1" vertex="1">
          <mxGeometry x="575" y="440" width="160" height="30" as="geometry" />
        </mxCell>
        <mxCell id="YDza5UhTeGuXQKySHivk-13" style="rounded=0;orthogonalLoop=1;jettySize=auto;html=1;entryX=0;entryY=0.75;entryDx=0;entryDy=0;exitX=1;exitY=0.25;exitDx=0;exitDy=0;jumpStyle=gap;" edge="1" parent="1" source="Gqdi9g9MBIYmfzDinq6c-26" target="YDza5UhTeGuXQKySHivk-5">
          <mxGeometry relative="1" as="geometry" />
        </mxCell>
        <mxCell id="Gqdi9g9MBIYmfzDinq6c-26" value="&lt;span style=&quot;font-size: 16px;&quot;&gt;erp_loc_a101&lt;/span&gt;" style="rounded=1;whiteSpace=wrap;html=1;fillColor=#f5f5f5;strokeColor=#666666;arcSize=23;fontColor=#333333;" parent="1" vertex="1">
          <mxGeometry x="575" y="490" width="160" height="30" as="geometry" />
        </mxCell>
        <mxCell id="YDza5UhTeGuXQKySHivk-15" style="rounded=0;orthogonalLoop=1;jettySize=auto;html=1;exitX=1;exitY=0.25;exitDx=0;exitDy=0;entryX=0;entryY=0.5;entryDx=0;entryDy=0;jumpStyle=gap;" edge="1" parent="1" source="Gqdi9g9MBIYmfzDinq6c-27" target="YDza5UhTeGuXQKySHivk-6">
          <mxGeometry relative="1" as="geometry" />
        </mxCell>
        <mxCell id="Gqdi9g9MBIYmfzDinq6c-27" value="&lt;span style=&quot;font-size: 16px;&quot;&gt;erp_px_cat_g1v2&lt;/span&gt;" style="rounded=1;whiteSpace=wrap;html=1;fillColor=#f5f5f5;strokeColor=#666666;arcSize=23;fontColor=#333333;" parent="1" vertex="1">
          <mxGeometry x="575" y="540" width="160" height="30" as="geometry" />
        </mxCell>
        <mxCell id="YDza5UhTeGuXQKySHivk-1" value="&lt;font style=&quot;font-size: 30px;&quot;&gt;Data Flow Diagram&lt;/font&gt;" style="text;html=1;align=center;verticalAlign=middle;resizable=0;points=[];autosize=1;strokeColor=none;fillColor=none;fontStyle=1" vertex="1" parent="1">
          <mxGeometry x="20" y="58" width="280" height="50" as="geometry" />
        </mxCell>
        <mxCell id="YDza5UhTeGuXQKySHivk-2" value="&lt;font style=&quot;font-size: 16px;&quot;&gt;&lt;b&gt;Gold Layer&lt;/b&gt;&lt;/font&gt;" style="rounded=1;whiteSpace=wrap;html=1;fillColor=#fff2cc;strokeColor=#d6b656;" vertex="1" parent="1">
          <mxGeometry x="810" y="160" width="210" height="50" as="geometry" />
        </mxCell>
        <mxCell id="YDza5UhTeGuXQKySHivk-3" value="" style="rounded=1;whiteSpace=wrap;html=1;fillColor=none;strokeColor=#d6b656;arcSize=5;" vertex="1" parent="1">
          <mxGeometry x="810" y="220" width="210" height="400" as="geometry" />
        </mxCell>
        <mxCell id="YDza5UhTeGuXQKySHivk-4" value="&lt;span style=&quot;font-size: 16px;&quot;&gt;fact_sales&lt;/span&gt;" style="rounded=1;whiteSpace=wrap;html=1;fillColor=#fff2cc;strokeColor=#d6b656;arcSize=23;" vertex="1" parent="1">
          <mxGeometry x="835" y="290" width="160" height="30" as="geometry" />
        </mxCell>
        <mxCell id="YDza5UhTeGuXQKySHivk-5" value="&lt;span style=&quot;font-size: 16px;&quot;&gt;dim_customers&lt;/span&gt;" style="rounded=1;whiteSpace=wrap;html=1;fillColor=#fff2cc;strokeColor=#d6b656;arcSize=23;" vertex="1" parent="1">
          <mxGeometry x="835" y="380" width="160" height="30" as="geometry" />
        </mxCell>
        <mxCell id="YDza5UhTeGuXQKySHivk-6" value="&lt;span style=&quot;font-size: 16px;&quot;&gt;dim_products&lt;/span&gt;" style="rounded=1;whiteSpace=wrap;html=1;fillColor=#fff2cc;strokeColor=#d6b656;arcSize=23;" vertex="1" parent="1">
          <mxGeometry x="835" y="470" width="160" height="30" as="geometry" />
        </mxCell>
      </root>
    </mxGraphModel>
  </diagram>
</mxfile>
